<mxfile host="65bd71144e">
    <diagram id="OtZCp-qMot1ulymGe9xT" name="Page-1">
        <mxGraphModel dx="820" dy="575" grid="1" gridSize="10" guides="1" tooltips="1" connect="1" arrows="1" fold="1" page="1" pageScale="1" pageWidth="827" pageHeight="1169" math="0" shadow="0">
            <root>
                <mxCell id="0"/>
                <mxCell id="1" parent="0"/>
                <mxCell id="54" value="" style="shape=ext;double=1;rounded=0;whiteSpace=wrap;html=1;fontSize=12;fontColor=#F0F0F0;fillColor=#080808;gradientColor=none;" parent="1" vertex="1">
                    <mxGeometry y="250" width="1650" height="530" as="geometry"/>
                </mxCell>
                <mxCell id="2" value="" style="rounded=1;whiteSpace=wrap;html=1;fillColor=#808080;" parent="1" vertex="1">
                    <mxGeometry x="20" y="290" width="720" height="390" as="geometry"/>
                </mxCell>
                <mxCell id="3" value="Intranet" style="text;html=1;fontSize=24;fontStyle=1;verticalAlign=middle;align=center;fontColor=#F01811;" parent="1" vertex="1">
                    <mxGeometry x="245" y="610" width="100" height="40" as="geometry"/>
                </mxCell>
                <mxCell id="4" value="" style="shape=ext;double=1;rounded=0;whiteSpace=wrap;html=1;fillColor=#f8cecc;strokeColor=#b85450;gradientColor=#0F1780;" parent="1" vertex="1">
                    <mxGeometry x="60" y="300" width="180" height="90" as="geometry"/>
                </mxCell>
                <mxCell id="6" value="&lt;font style=&quot;font-size: 12px&quot; color=&quot;#f0f0f0&quot;&gt;Administratifs (vlan 1)&lt;/font&gt;" style="text;strokeColor=none;fillColor=none;html=1;fontSize=24;fontStyle=1;verticalAlign=middle;align=center;fontColor=#F01811;" parent="1" vertex="1">
                    <mxGeometry x="100" y="355" width="100" height="40" as="geometry"/>
                </mxCell>
                <mxCell id="5" value="" style="verticalLabelPosition=bottom;html=1;verticalAlign=top;align=center;strokeColor=none;fillColor=#00BEF2;shape=mxgraph.azure.computer;pointerEvents=1;fontColor=#F01811;" parent="1" vertex="1">
                    <mxGeometry x="125" y="310" width="50" height="45" as="geometry"/>
                </mxCell>
                <mxCell id="7" value="" style="shape=ext;double=1;rounded=0;whiteSpace=wrap;html=1;fillColor=#f8cecc;strokeColor=#b85450;gradientColor=#0F1780;" parent="1" vertex="1">
                    <mxGeometry x="340" y="300" width="180" height="90" as="geometry"/>
                </mxCell>
                <mxCell id="8" value="" style="verticalLabelPosition=bottom;html=1;verticalAlign=top;align=center;strokeColor=none;fillColor=#00BEF2;shape=mxgraph.azure.computer;pointerEvents=1;fontColor=#F01811;" parent="1" vertex="1">
                    <mxGeometry x="405" y="310" width="50" height="45" as="geometry"/>
                </mxCell>
                <mxCell id="9" value="&lt;font style=&quot;font-size: 12px&quot; color=&quot;#f0f0f0&quot;&gt;Commerciaux (vlan 2)&lt;/font&gt;" style="text;strokeColor=none;fillColor=none;html=1;fontSize=24;fontStyle=1;verticalAlign=middle;align=center;fontColor=#F01811;" parent="1" vertex="1">
                    <mxGeometry x="380" y="355" width="100" height="40" as="geometry"/>
                </mxCell>
                <mxCell id="10" value="" style="shape=ext;double=1;rounded=0;whiteSpace=wrap;html=1;fillColor=#f8cecc;strokeColor=#b85450;gradientColor=#0F1780;" parent="1" vertex="1">
                    <mxGeometry x="340" y="520" width="180" height="90" as="geometry"/>
                </mxCell>
                <mxCell id="11" value="" style="verticalLabelPosition=bottom;html=1;verticalAlign=top;align=center;strokeColor=none;fillColor=#00BEF2;shape=mxgraph.azure.computer;pointerEvents=1;fontColor=#F01811;" parent="1" vertex="1">
                    <mxGeometry x="405" y="535" width="50" height="45" as="geometry"/>
                </mxCell>
                <mxCell id="12" value="&lt;font style=&quot;font-size: 12px&quot; color=&quot;#f0f0f0&quot;&gt;SI (vlan 3)&lt;/font&gt;" style="text;strokeColor=none;fillColor=none;html=1;fontSize=24;fontStyle=1;verticalAlign=middle;align=center;fontColor=#F01811;" parent="1" vertex="1">
                    <mxGeometry x="380" y="570" width="100" height="40" as="geometry"/>
                </mxCell>
                <mxCell id="13" value="" style="edgeStyle=segmentEdgeStyle;endArrow=classic;html=1;fontSize=12;fontColor=#F0F0F0;entryX=0.6;entryY=1.075;entryDx=0;entryDy=0;entryPerimeter=0;strokeColor=#FFFFFF;" parent="1" target="12" edge="1">
                    <mxGeometry width="50" height="50" relative="1" as="geometry">
                        <mxPoint x="330" y="740" as="sourcePoint"/>
                        <mxPoint x="560" y="640" as="targetPoint"/>
                    </mxGeometry>
                </mxCell>
                <mxCell id="14" value="&lt;font style=&quot;font-size: 12px&quot;&gt;Doit avoir accÃ¨s a tous les VLAN&lt;br&gt;Doit avoir acces a tous les pc en SSH&lt;br&gt;&lt;/font&gt;" style="text;strokeColor=none;fillColor=none;html=1;fontSize=24;fontStyle=1;verticalAlign=middle;align=center;fontColor=#F0F0F0;" parent="1" vertex="1">
                    <mxGeometry x="175" y="710" width="100" height="40" as="geometry"/>
                </mxCell>
                <mxCell id="17" value="" style="points=[];aspect=fixed;html=1;align=center;shadow=0;dashed=0;image;image=img/lib/allied_telesis/computer_and_terminals/Server_Desktop.svg;fontSize=12;fontColor=#F0F0F0;gradientColor=#0F1780;" parent="1" vertex="1">
                    <mxGeometry x="96.34" y="500" width="47.33" height="60" as="geometry"/>
                </mxCell>
                <mxCell id="18" value="&lt;font style=&quot;font-size: 12px&quot; color=&quot;#f0f0f0&quot;&gt;Intranet Web server&lt;br&gt;&lt;/font&gt;" style="text;strokeColor=none;fillColor=none;html=1;fontSize=24;fontStyle=1;verticalAlign=middle;align=center;fontColor=#F01811;" parent="1" vertex="1">
                    <mxGeometry x="65" y="560" width="100" height="30" as="geometry"/>
                </mxCell>
                <mxCell id="19" value="" style="sketch=0;points=[[0.015,0.015,0],[0.985,0.015,0],[0.985,0.985,0],[0.015,0.985,0],[0.25,0,0],[0.5,0,0],[0.75,0,0],[1,0.25,0],[1,0.5,0],[1,0.75,0],[0.75,1,0],[0.5,1,0],[0.25,1,0],[0,0.75,0],[0,0.5,0],[0,0.25,0]];verticalLabelPosition=bottom;html=1;verticalAlign=top;aspect=fixed;align=center;pointerEvents=1;shape=mxgraph.cisco19.rect;prIcon=l2_switch;fillColor=#FAFAFA;strokeColor=#005073;fontSize=12;fontColor=#F0F0F0;" parent="1" vertex="1">
                    <mxGeometry x="270" y="440" width="50" height="50" as="geometry"/>
                </mxCell>
                <mxCell id="20" value="" style="edgeStyle=isometricEdgeStyle;endArrow=none;html=1;elbow=vertical;fontSize=12;fontColor=#F0F0F0;entryX=1;entryY=1;entryDx=0;entryDy=0;exitX=0.015;exitY=0.015;exitDx=0;exitDy=0;exitPerimeter=0;strokeColor=#FFFFFF;" parent="1" source="19" target="4" edge="1">
                    <mxGeometry width="50" height="100" relative="1" as="geometry">
                        <mxPoint x="400" y="650" as="sourcePoint"/>
                        <mxPoint x="450" y="550" as="targetPoint"/>
                        <Array as="points">
                            <mxPoint x="220" y="400"/>
                        </Array>
                    </mxGeometry>
                </mxCell>
                <mxCell id="21" value="" style="edgeStyle=isometricEdgeStyle;endArrow=none;html=1;elbow=vertical;fontSize=12;fontColor=#F0F0F0;entryX=0;entryY=1;entryDx=0;entryDy=0;exitX=0.985;exitY=0.015;exitDx=0;exitDy=0;exitPerimeter=0;strokeColor=#FFFFFF;" parent="1" source="19" target="7" edge="1">
                    <mxGeometry width="50" height="100" relative="1" as="geometry">
                        <mxPoint x="400" y="650" as="sourcePoint"/>
                        <mxPoint x="450" y="550" as="targetPoint"/>
                        <Array as="points">
                            <mxPoint x="350" y="420"/>
                        </Array>
                    </mxGeometry>
                </mxCell>
                <mxCell id="23" value="" style="edgeStyle=isometricEdgeStyle;endArrow=none;html=1;elbow=vertical;fontSize=12;fontColor=#F0F0F0;entryX=0.985;entryY=0.985;entryDx=0;entryDy=0;entryPerimeter=0;exitX=0;exitY=0;exitDx=0;exitDy=0;strokeColor=#FFFFFF;" parent="1" source="10" target="19" edge="1">
                    <mxGeometry width="50" height="100" relative="1" as="geometry">
                        <mxPoint x="400" y="650" as="sourcePoint"/>
                        <mxPoint x="450" y="550" as="targetPoint"/>
                    </mxGeometry>
                </mxCell>
                <mxCell id="24" value="" style="edgeStyle=isometricEdgeStyle;endArrow=none;html=1;elbow=vertical;fontSize=12;fontColor=#F0F0F0;entryX=0.015;entryY=0.985;entryDx=0;entryDy=0;entryPerimeter=0;exitX=1.028;exitY=0.017;exitDx=0;exitDy=0;exitPerimeter=0;strokeColor=#FFFFFF;" parent="1" source="17" target="19" edge="1">
                    <mxGeometry width="50" height="100" relative="1" as="geometry">
                        <mxPoint x="400" y="650" as="sourcePoint"/>
                        <mxPoint x="450" y="550" as="targetPoint"/>
                    </mxGeometry>
                </mxCell>
                <mxCell id="25" value="" style="image;html=1;image=img/lib/clip_art/networking/Router_Icon_128x128.png;fontSize=12;fontColor=#F0F0F0;gradientColor=#0F1780;" parent="1" vertex="1">
                    <mxGeometry x="600" y="430" width="80" height="80" as="geometry"/>
                </mxCell>
                <mxCell id="26" value="" style="line;strokeWidth=2;html=1;fontSize=12;fontColor=#F0F0F0;gradientColor=#0F1780;strokeColor=#FFFFFF;" parent="1" vertex="1">
                    <mxGeometry x="320" y="465" width="280" height="10" as="geometry"/>
                </mxCell>
                <mxCell id="30" value="" style="rounded=1;whiteSpace=wrap;html=1;fillColor=#4D4D4D;" parent="1" vertex="1">
                    <mxGeometry x="770" y="285" width="260" height="395" as="geometry"/>
                </mxCell>
                <mxCell id="31" value="DMZ" style="text;html=1;fontSize=24;fontStyle=1;verticalAlign=middle;align=center;fontColor=#F01811;" parent="1" vertex="1">
                    <mxGeometry x="850" y="610" width="100" height="40" as="geometry"/>
                </mxCell>
                <mxCell id="32" value="" style="sketch=0;points=[[0.015,0.015,0],[0.985,0.015,0],[0.985,0.985,0],[0.015,0.985,0],[0.25,0,0],[0.5,0,0],[0.75,0,0],[1,0.25,0],[1,0.5,0],[1,0.75,0],[0.75,1,0],[0.5,1,0],[0.25,1,0],[0,0.75,0],[0,0.5,0],[0,0.25,0]];verticalLabelPosition=bottom;html=1;verticalAlign=top;aspect=fixed;align=center;pointerEvents=1;shape=mxgraph.cisco19.rect;prIcon=l2_switch;fillColor=#FAFAFA;strokeColor=#005073;fontSize=12;fontColor=#F0F0F0;" parent="1" vertex="1">
                    <mxGeometry x="875" y="445" width="50" height="50" as="geometry"/>
                </mxCell>
                <mxCell id="34" value="" style="points=[];aspect=fixed;html=1;align=center;shadow=0;dashed=0;image;image=img/lib/allied_telesis/computer_and_terminals/Server_Desktop.svg;fontSize=12;fontColor=#F0F0F0;gradientColor=#0F1780;" parent="1" vertex="1">
                    <mxGeometry x="876.34" y="300" width="47.33" height="60" as="geometry"/>
                </mxCell>
                <mxCell id="35" value="&lt;font style=&quot;font-size: 12px&quot; color=&quot;#f0f0f0&quot;&gt;DNS&lt;br&gt;Extranet Web server&lt;br&gt;&lt;/font&gt;" style="text;strokeColor=none;fillColor=none;html=1;fontSize=24;fontStyle=1;verticalAlign=middle;align=center;fontColor=#F01811;" parent="1" vertex="1">
                    <mxGeometry x="850.01" y="370" width="100" height="10" as="geometry"/>
                </mxCell>
                <mxCell id="36" value="" style="line;strokeWidth=2;html=1;fontSize=12;fontColor=#F0F0F0;gradientColor=#0F1780;strokeColor=#FFFFFF;" parent="1" vertex="1">
                    <mxGeometry x="680" y="465" width="200" height="10" as="geometry"/>
                </mxCell>
                <mxCell id="40" value="IUT Network" style="ellipse;shape=cloud;whiteSpace=wrap;html=1;align=center;fontSize=12;fontColor=#F0F0F0;gradientColor=#0F1780;" parent="1" vertex="1">
                    <mxGeometry x="1000" y="325" width="590" height="290" as="geometry"/>
                </mxCell>
                <mxCell id="38" value="" style="sketch=0;points=[[0.5,0,0],[1,0.5,0],[0.5,1,0],[0,0.5,0],[0.145,0.145,0],[0.8555,0.145,0],[0.855,0.8555,0],[0.145,0.855,0]];verticalLabelPosition=bottom;html=1;verticalAlign=top;aspect=fixed;align=center;pointerEvents=1;shape=mxgraph.cisco19.rect;prIcon=router_with_firewall;fillColor=#FAFAFA;strokeColor=#005073;fontSize=12;fontColor=#F0F0F0;" parent="1" vertex="1">
                    <mxGeometry x="1010" y="440" width="50" height="50" as="geometry"/>
                </mxCell>
                <UserObject label="192.168.40.0/24" placeholders="1" name="Variable" id="41">
                    <mxCell style="text;html=1;strokeColor=none;fillColor=none;align=center;verticalAlign=middle;whiteSpace=wrap;overflow=hidden;fontSize=12;fontColor=#F0F0F0;" parent="1" vertex="1">
                        <mxGeometry x="240" y="650" width="110" height="20" as="geometry"/>
                    </mxCell>
                </UserObject>
                <UserObject label="192.168.10.0/24" placeholders="1" name="Variable" id="43">
                    <mxCell style="text;html=1;strokeColor=none;fillColor=none;align=center;verticalAlign=middle;whiteSpace=wrap;overflow=hidden;fontSize=12;fontColor=#F0F0F0;" parent="1" vertex="1">
                        <mxGeometry x="90" y="390" width="110" height="20" as="geometry"/>
                    </mxCell>
                </UserObject>
                <UserObject label="192.168.20.0/24" placeholders="1" name="Variable" id="44">
                    <mxCell style="text;html=1;strokeColor=none;fillColor=none;align=center;verticalAlign=middle;whiteSpace=wrap;overflow=hidden;fontSize=12;fontColor=#F0F0F0;" parent="1" vertex="1">
                        <mxGeometry x="375" y="390" width="110" height="20" as="geometry"/>
                    </mxCell>
                </UserObject>
                <UserObject label="192.168.30.0/24" placeholders="1" name="Variable" id="45">
                    <mxCell style="text;html=1;strokeColor=none;fillColor=none;align=center;verticalAlign=middle;whiteSpace=wrap;overflow=hidden;fontSize=12;fontColor=#F0F0F0;" parent="1" vertex="1">
                        <mxGeometry x="375" y="500" width="110" height="20" as="geometry"/>
                    </mxCell>
                </UserObject>
                <UserObject label=".254" placeholders="1" name="Variable" id="46">
                    <mxCell style="text;html=1;strokeColor=none;fillColor=none;align=center;verticalAlign=middle;whiteSpace=wrap;overflow=hidden;fontSize=12;fontColor=#F0F0F0;" parent="1" vertex="1">
                        <mxGeometry x="530" y="472.5" width="110" height="20" as="geometry"/>
                    </mxCell>
                </UserObject>
                <UserObject label="192.168.40.1/24" placeholders="1" name="Variable" id="47">
                    <mxCell style="text;html=1;strokeColor=none;fillColor=none;align=center;verticalAlign=middle;whiteSpace=wrap;overflow=hidden;fontSize=12;fontColor=#F0F0F0;" parent="1" vertex="1">
                        <mxGeometry x="60" y="590" width="110" height="20" as="geometry"/>
                    </mxCell>
                </UserObject>
                <UserObject label="123.123.14.0/24" placeholders="1" name="Variable" id="48">
                    <mxCell style="text;html=1;strokeColor=none;fillColor=none;align=center;verticalAlign=middle;whiteSpace=wrap;overflow=hidden;fontSize=12;fontColor=#F0F0F0;" parent="1" vertex="1">
                        <mxGeometry x="845" y="650" width="110" height="20" as="geometry"/>
                    </mxCell>
                </UserObject>
                <UserObject label="123.123.14.53/24" placeholders="1" name="Variable" id="50">
                    <mxCell style="text;html=1;strokeColor=none;fillColor=none;align=center;verticalAlign=middle;whiteSpace=wrap;overflow=hidden;fontSize=12;fontColor=#F0F0F0;" parent="1" vertex="1">
                        <mxGeometry x="845.01" y="400" width="110" height="20" as="geometry"/>
                    </mxCell>
                </UserObject>
                <UserObject label="123.123.14.254/24" placeholders="1" name="Variable" id="51">
                    <mxCell style="text;html=1;strokeColor=none;fillColor=none;align=center;verticalAlign=middle;whiteSpace=wrap;overflow=hidden;fontSize=12;fontColor=#F0F0F0;" parent="1" vertex="1">
                        <mxGeometry x="980" y="420" width="110" height="20" as="geometry"/>
                    </mxCell>
                </UserObject>
                <UserObject label="10.213.0.0/16" placeholders="1" name="Variable" id="55">
                    <mxCell style="text;html=1;strokeColor=none;fillColor=none;align=center;verticalAlign=middle;whiteSpace=wrap;overflow=hidden;fontSize=12;fontColor=#F0F0F0;" parent="1" vertex="1">
                        <mxGeometry x="1240" y="480" width="110" height="20" as="geometry"/>
                    </mxCell>
                </UserObject>
                <mxCell id="58" value="123.123.14.1/24" style="text;html=1;resizable=0;autosize=1;align=center;verticalAlign=middle;points=[];fillColor=none;strokeColor=none;rounded=0;fontColor=#FFFFFF;" parent="1" vertex="1">
                    <mxGeometry x="670" y="472.5" width="100" height="20" as="geometry"/>
                </mxCell>
            </root>
        </mxGraphModel>
    </diagram>
</mxfile>